<svg xmlns="http://www.w3.org/2000/svg" width="100" height="100" viewBox="0 0 100 100">
  <!-- Original template-authored "tip/idea" admonition icon. -->
  <g fill="#FFE75A">
    <circle cx="50" cy="44" r="23"/>
    <path d="M40 62 h20 v8 a4 4 0 0 1 -4 4 H44 a4 4 0 0 1 -4 -4 z"/>
    <rect x="42" y="76" width="16" height="4" rx="1.3"/>
    <rect x="42" y="82" width="16" height="4" rx="1.3"/>
    <path d="M45 88 h10 c0 2.4 -2.4 4.3 -5 4.3 s-5 -1.9 -5 -4.3 z"/>
  </g>
  <g stroke="#FFE75A" stroke-width="4" stroke-linecap="round">
    <line x1="50" y1="6" x2="50" y2="13"/>
    <line x1="21" y1="19" x2="26" y2="24"/>
    <line x1="79" y1="19" x2="74" y2="24"/>
    <line x1="8" y1="44" x2="15" y2="44"/>
    <line x1="92" y1="44" x2="85" y2="44"/>
  </g>
</svg>
